<svg xmlns="http://www.w3.org/2000/svg" xmlns:xlink="http://www.w3.org/1999/xlink" viewBox="0 0 3358 2160"><defs><style>.a{fill:url(#a);}.b{fill:#fff;}</style><linearGradient id="a" y1="1080" x2="3358" y2="1080" gradientUnits="userSpaceOnUse"><stop offset="0" stop-color="#f411ee"/><stop offset="0.292" stop-color="#a741ea"/><stop offset="0.634" stop-color="#5377e6"/><stop offset="0.877" stop-color="#1e98e3"/><stop offset="0.994" stop-color="#0aa5e2"/></linearGradient></defs><path class="a" d="M3358,2160c-100.229-172.047-207.629-240.245-289.983-270-119.284-43.1-246.553-36.888-370.71-140-131.254-109.007-68.164-204.448-188.01-298-149.945-117.047-291.065-.714-471.62-114-150-94.114-91.4-198.748-249.619-311-169.672-120.379-271.35-24.373-451.438-140-129.593-83.207-129.507-166.673-206.646-258.589-33.245-39.613-63.648-61.853-103.518-90.411C874.9,429.447,766.8,438.9,671.17,386,592.4,342.423,499.983,244.3,453,0H0V2160Z"/><path d="M3069.521,471.32A63.021,63.021,0,1,0,2957.537,511h-.053l49.016,68.19L3055.516,511h-.053A62.749,62.749,0,0,0,3069.521,471.32ZM3006.5,445.334a25.987,25.987,0,1,1-25.986,25.986A25.984,25.984,0,0,1,3006.5,445.334Z"/><path class="b" d="M877.185,1640.32A63.021,63.021,0,1,0,765.2,1680h-.053l49.016,68.19L863.181,1680h-.053A62.748,62.748,0,0,0,877.185,1640.32Zm-63.02-25.986a25.987,25.987,0,1,1-25.986,25.986A25.984,25.984,0,0,1,814.165,1614.334Z"/></svg>