<svg xmlns="http://www.w3.org/2000/svg" xmlns:xlink="http://www.w3.org/1999/xlink" viewBox="0 0 3212 1894"><defs><style>.a{fill:url(#a);}</style><linearGradient id="a" x1="627.5" y1="946.5" x2="3839.5" y2="946.5" gradientUnits="userSpaceOnUse"><stop offset="0" stop-color="#f411ee"/><stop offset="0.094" stop-color="#e818ed"/><stop offset="0.262" stop-color="#c92cec"/><stop offset="0.487" stop-color="#964de9"/><stop offset="0.755" stop-color="#5079e6"/><stop offset="1" stop-color="#0aa5e2"/></linearGradient></defs><path class="a" d="M3839.5,1893.5c-85.683-74.01-117.125-143.87-130-194-16.754-65.235,1.532-83.051-21-141-37.062-95.319-103.377-90.428-136-175-33.272-86.256,25.421-118.017-7-187-43.3-92.134-158-56.742-231-162-47.842-68.978-9.627-100.1-62-176-56.157-81.389-107.9-56.917-184-142-75.949-84.91-46.421-133.876-118-187-62.487-46.376-91.049-13.555-180-64-85.5-48.489-75.223-87.951-151-120-64.2-27.154-77.487-1.322-177-26-100.8-25-99.544-54.568-167-61-94.194-8.981-112.346,47.181-212,51-102,3.909-110.258-53.88-226-69-132.232-17.275-153.042,54.026-287,46-127.194-7.62-128.459-73.1-282-105-147.57-30.658-191.07,20.55-321,0-80.859-12.789-194.057-53.189-320-182h3212Z" transform="translate(-627.5 0.5)"/></svg>