<svg xmlns="http://www.w3.org/2000/svg" xmlns:xlink="http://www.w3.org/1999/xlink" viewBox="0 0 3390 2160"><defs><style>.a{fill:url(#a);}.b{fill:#fff;}.c{fill:url(#b);}</style><linearGradient id="a" y1="1080" x2="3390" y2="1080" gradientUnits="userSpaceOnUse"><stop offset="0" stop-color="#f411ee"/><stop offset="0.292" stop-color="#a741ea"/><stop offset="0.634" stop-color="#5377e6"/><stop offset="0.877" stop-color="#1e98e3"/><stop offset="0.994" stop-color="#0aa5e2"/></linearGradient><linearGradient id="b" x1="-594" y1="-204" x2="-594" y2="-204" xlink:href="#a"/></defs><path class="a" d="M693.649,0c513.647,58.287,686.6,213.346,750.749,342,85.852,172.188-17.941,307.632,101.51,444,147.871,168.813,378.4,42.841,576.279,222,138.01,124.953,84.476,239.284,214.65,412,155.242,205.975,366.366,106.752,509.663,298,93.723,125.084,47.694,202.286,148.035,305,108.684,111.253,273.9,134.523,395.465,137H0V0Z"/><path d="M3069.521,471.32A63.021,63.021,0,1,0,2957.537,511h-.053l49.016,68.19L3055.516,511h-.053A62.749,62.749,0,0,0,3069.521,471.32ZM3006.5,445.334a25.987,25.987,0,1,1-25.986,25.986A25.984,25.984,0,0,1,3006.5,445.334Z"/><path class="b" d="M877.185,1640.32A63.021,63.021,0,1,0,765.2,1680h-.053l49.016,68.19L863.181,1680h-.053A62.748,62.748,0,0,0,877.185,1640.32Zm-63.02-25.986a25.987,25.987,0,1,1-25.986,25.986A25.984,25.984,0,0,1,814.165,1614.334Z"/><path class="c" d="M-594-204"/></svg>