<svg xmlns="http://www.w3.org/2000/svg" xmlns:xlink="http://www.w3.org/1999/xlink" viewBox="0 0 3649.99 4320"><defs><style>.a{fill:url(#a);}.b{fill:#fff;}</style><linearGradient id="a" y1="2160" x2="3346.97" y2="2160" gradientUnits="userSpaceOnUse"><stop offset="0" stop-color="#f411ee"/><stop offset="0.21" stop-color="#c131eb"/><stop offset="0.76" stop-color="#3e84e5"/><stop offset="1" stop-color="#0aa5e2"/></linearGradient></defs><path d="M3650,242.88A41.49,41.49,0,1,0,3576.26,269h0l32.27,44.89L3640.77,269h0A41.34,41.34,0,0,0,3650,242.88Zm-41.49-17.11a17.11,17.11,0,1,1-17.11,17.11A17.11,17.11,0,0,1,3608.5,225.77Z"/><path class="a" d="M506,0C664.81,202.47,820.77,282.65,936,318c177.38,54.41,284,10.48,418,111,115.82,86.86,80.28,152.7,212.43,270,151.5,134.47,239,84.17,334.57,199,115.1,138.3,15,243.52,117,381,121.82,164.25,307.49,71.81,489,243,142.8,134.68,60.62,222.77,193.43,378C2917,2153.05,3244.29,2046.28,3329,2249c45.83,109.69-2.4,254.9-73,335-109.18,123.86-247.3,63.95-362,194-97.12,110.13-25.63,184.45-111,289-125.43,153.6-314,35.15-590,189-183.19,102.13-147,180.46-304,234-217.48,74.16-337.11-59-500,37-106.54,62.79-72.54,129.89-215,245-120.44,97.32-197.39,91.91-312,157-99.57,56.55-224.29,164.45-323,391H0V0Z"/><path class="b" d="M795,1353.88A41.49,41.49,0,1,0,721.26,1380h0l32.27,44.89L785.77,1380h0A41.34,41.34,0,0,0,795,1353.88Zm-41.49-17.11a17.11,17.11,0,1,1-17.11,17.11A17.11,17.11,0,0,1,753.5,1336.77Z"/><path class="b" d="M2225,2088.88a41.49,41.49,0,1,0-73.73,26.12h0l32.27,44.89,32.27-44.89h0A41.34,41.34,0,0,0,2225,2088.88Zm-41.49-17.11a17.11,17.11,0,1,1-17.11,17.11A17.11,17.11,0,0,1,2183.49,2071.77Z"/><path class="b" d="M1030.45,2765.88A41.49,41.49,0,1,0,956.72,2792h0L989,2836.89l32.27-44.89h0A41.34,41.34,0,0,0,1030.45,2765.88ZM989,2748.77a17.11,17.11,0,1,1-17.11,17.11A17.11,17.11,0,0,1,989,2748.77Z"/><path d="M3403.45,3689.88a41.49,41.49,0,1,0-73.73,26.12h0l32.27,44.89,32.27-44.89h0A41.34,41.34,0,0,0,3403.45,3689.88ZM3362,3672.77a17.11,17.11,0,1,1-17.11,17.11A17.11,17.11,0,0,1,3362,3672.77Z"/><path d="M2923.45,949.88A41.49,41.49,0,1,0,2849.72,976h0l32.27,44.89L2914.23,976h0A41.34,41.34,0,0,0,2923.45,949.88ZM2882,932.77a17.11,17.11,0,1,1-17.11,17.11A17.11,17.11,0,0,1,2882,932.77Z"/></svg>