<svg xmlns="http://www.w3.org/2000/svg" xmlns:xlink="http://www.w3.org/1999/xlink" viewBox="0 0 3649.991 4320"><defs><style>.a{fill:url(#a);}.b{fill:#fff;}</style><linearGradient id="a" y1="2160" x2="3346.966" y2="2160" gradientUnits="userSpaceOnUse"><stop offset="0" stop-color="#f411ee"/><stop offset="0.207" stop-color="#c131eb"/><stop offset="0.758" stop-color="#3e84e5"/><stop offset="1" stop-color="#0aa5e2"/></linearGradient></defs><path d="M3649.991,242.876A41.491,41.491,0,1,0,3576.264,269h-.035L3608.5,313.9,3640.771,269h-.035A41.309,41.309,0,0,0,3649.991,242.876ZM3608.5,225.767a17.109,17.109,0,1,1-17.109,17.109A17.108,17.108,0,0,1,3608.5,225.767Z"/><path class="a" d="M506,0C664.811,202.47,820.775,282.652,936.008,318c177.38,54.412,283.957,10.476,417.992,111,115.821,86.864,80.278,152.7,212.432,270,151.494,134.469,239,84.168,334.568,199,115.1,138.3,15.041,243.524,117,381,121.818,164.246,307.486,71.814,489,243,142.8,134.681,60.619,222.772,193.435,378,216.512,253.047,543.86,146.285,628.565,349,45.835,109.691-2.4,254.905-73,335-109.179,123.857-247.3,63.946-362,194-97.122,110.126-25.63,184.453-111,289-125.425,153.6-314.027,35.147-590,189-183.188,102.126-146.977,180.459-304,234-217.482,74.156-337.11-59.008-500,37-106.541,62.8-72.541,129.886-215,245-120.438,97.32-197.385,91.907-312,157-99.574,56.551-224.293,164.449-323,391H0V0Z"/><path class="b" d="M794.991,1353.876A41.491,41.491,0,1,0,721.264,1380h-.035L753.5,1424.9,785.771,1380h-.035A41.309,41.309,0,0,0,794.991,1353.876ZM753.5,1336.767a17.109,17.109,0,1,1-17.109,17.109A17.108,17.108,0,0,1,753.5,1336.767Z"/><path class="b" d="M2224.98,2088.876A41.491,41.491,0,1,0,2151.253,2115h-.035l32.271,44.895L2215.76,2115h-.035A41.309,41.309,0,0,0,2224.98,2088.876Zm-41.491-17.109a17.109,17.109,0,1,1-17.109,17.109A17.108,17.108,0,0,1,2183.489,2071.767Z"/><path class="b" d="M1030.451,2765.876A41.492,41.492,0,1,0,956.724,2792h-.035L988.96,2836.9,1021.231,2792h-.035A41.315,41.315,0,0,0,1030.451,2765.876Zm-41.491-17.109a17.109,17.109,0,1,1-17.109,17.109A17.108,17.108,0,0,1,988.96,2748.767Z"/><path d="M3403.451,3689.876A41.492,41.492,0,1,0,3329.724,3716h-.035l32.271,44.895L3394.231,3716h-.035A41.315,41.315,0,0,0,3403.451,3689.876Zm-41.491-17.109a17.109,17.109,0,1,1-17.109,17.109A17.108,17.108,0,0,1,3361.96,3672.767Z"/><path d="M3146.451,1240.876A41.492,41.492,0,1,0,3072.724,1267h-.035l32.271,44.895L3137.231,1267h-.035A41.315,41.315,0,0,0,3146.451,1240.876Zm-41.491-17.109a17.109,17.109,0,1,1-17.109,17.109A17.108,17.108,0,0,1,3104.96,1223.767Z"/></svg>