<svg xmlns="http://www.w3.org/2000/svg" xmlns:xlink="http://www.w3.org/1999/xlink" viewBox="0 0 3358 4320"><defs><style>.a{fill:url(#a);}.b{fill:#fff;}.c{fill:url(#b);}</style><linearGradient id="a" y1="1080" x2="3358" y2="1080" gradientUnits="userSpaceOnUse"><stop offset="0" stop-color="#f411ee"/><stop offset="0.29" stop-color="#a741ea"/><stop offset="0.64" stop-color="#5377e6"/><stop offset="0.88" stop-color="#1e98e3"/><stop offset="1" stop-color="#0aa5e2"/></linearGradient><linearGradient id="b" y1="-1080" y2="-1080" gradientTransform="matrix(1, 0, 0, -1, 0, 2160)" xlink:href="#a"/></defs><path d="M3330,311.88A41.49,41.49,0,1,0,3256.26,338h0l32.27,44.89L3320.77,338h0A41.34,41.34,0,0,0,3330,311.88Zm-41.49-17.11a17.11,17.11,0,1,1-17.11,17.11A17.11,17.11,0,0,1,3288.5,294.77Z"/><path class="a" d="M3358,2160c-100.23-172-207.63-240.25-290-270-119.29-43.1-246.56-36.89-370.71-140-131.26-109-68.17-204.45-188-298-150-117-291.07-.71-471.62-114-150-94.11-91.4-198.75-249.62-311-169.67-120.38-271.35-24.37-451.44-140C1207,803.79,1207.11,720.33,1130,628.41c-33.24-39.61-63.64-61.85-103.51-90.41C874.9,429.45,766.8,438.9,671.17,386,592.4,342.42,500,244.3,453,0H0V2160Z"/><path class="b" d="M577,1804.88A41.49,41.49,0,1,0,503.26,1831h0l32.27,44.89L567.77,1831h0A41.34,41.34,0,0,0,577,1804.88Zm-41.49-17.11a17.11,17.11,0,1,1-17.11,17.11A17.11,17.11,0,0,1,535.5,1787.77Z"/><path d="M3256.26,4004.72h0l32.27,44.9,32.27-44.9h0a41.49,41.49,0,1,0-64.48,0Zm49.35-26.12a17.11,17.11,0,1,1-17.11-17.11A17.11,17.11,0,0,1,3305.61,3978.6Z"/><path class="c" d="M3358,2160c-100.23,172.05-207.63,240.25-290,270-119.29,43.1-246.56,36.89-370.71,140-131.26,109-68.17,204.45-188,298-150,117.05-291.07.71-471.62,114-150,94.11-91.4,198.75-249.62,311-169.67,120.38-271.35,24.37-451.44,140C1207,3516.21,1207.11,3599.67,1130,3691.59c-33.24,39.61-63.64,61.85-103.51,90.41-151.56,108.55-259.66,99.1-355.29,152C592.4,3977.58,500,4075.7,453,4320H0V2160Z"/><path class="b" d="M503.26,2511.72h0l32.27,44.9,32.27-44.9h0a41.49,41.49,0,1,0-64.48,0Zm49.35-26.12a17.11,17.11,0,1,1-17.11-17.11A17.11,17.11,0,0,1,552.61,2485.6Z"/></svg>