<svg xmlns="http://www.w3.org/2000/svg" xmlns:xlink="http://www.w3.org/1999/xlink" viewBox="0 0 3516.514 2160"><defs><style>.a{fill:url(#a);}.b{fill:#fff;}</style><linearGradient id="a" x1="462.718" y1="1080" x2="3840" y2="1080" gradientUnits="userSpaceOnUse"><stop offset="0.002" stop-color="#f411ee"/><stop offset="0.098" stop-color="#e61aed"/><stop offset="0.28" stop-color="#c330eb"/><stop offset="0.525" stop-color="#8955e9"/><stop offset="0.823" stop-color="#3a86e4"/><stop offset="0.995" stop-color="#0aa5e2"/></linearGradient></defs><path class="a" d="M3346.386,0c-303.457,58.314-401.862,150.785-430.98,230.107-15.624,42.559-13.255,86.657-56.309,138.063-63.042,75.272-133.308,58.562-215.49,119.056-99.307,73.1-48.182,135.385-142.938,245.113-107.97,125.029-203.878,78.357-321.611,208.1-98.144,108.153-47.148,157.836-135.358,227.106-128.184,100.661-263.318,17.3-381.168,122.056-78.034,69.364-35.623,120.878-119.115,187.087-101.474,80.467-190.964,25.661-294.539,101.046-95.771,69.7-44.435,134.883-133.193,220.1-115.557,110.951-252.762,48.659-434.228,147.068-64.962,35.229-147.166,97.326-218.739,215.1H3840V0Z" transform="translate(-323.486 0)"/><path class="b" d="M3513.469,920.876A41.492,41.492,0,1,0,3439.741,947h-.035l32.271,44.895L3504.248,947h-.034A41.315,41.315,0,0,0,3513.469,920.876Zm-41.492-17.109a17.109,17.109,0,1,1-17.108,17.109A17.108,17.108,0,0,1,3471.977,903.767Z" transform="translate(-323.486 0)"/><path class="b" d="M2355.469,1606.876A41.492,41.492,0,1,0,2281.741,1633h-.035l32.271,44.895L2346.248,1633h-.034A41.315,41.315,0,0,0,2355.469,1606.876Zm-41.492-17.109a17.109,17.109,0,1,1-17.108,17.109A17.108,17.108,0,0,1,2313.977,1589.767Z" transform="translate(-323.486 0)"/><path d="M712.469,1364.876A41.492,41.492,0,1,0,638.741,1391h-.035l32.271,44.895L703.248,1391h-.034A41.315,41.315,0,0,0,712.469,1364.876Zm-41.492-17.109a17.109,17.109,0,1,1-17.108,17.109A17.108,17.108,0,0,1,670.977,1347.767Z" transform="translate(-323.486 0)"/><path d="M406.469,488.876A41.492,41.492,0,1,0,332.741,515h-.035L364.977,559.9,397.248,515h-.034A41.315,41.315,0,0,0,406.469,488.876Zm-41.492-17.109a17.109,17.109,0,1,1-17.108,17.109A17.108,17.108,0,0,1,364.977,471.767Z" transform="translate(-323.486 0)"/></svg>