<svg xmlns="http://www.w3.org/2000/svg" xmlns:xlink="http://www.w3.org/1999/xlink" viewBox="0 0 3358 2160"><defs><style>.a{fill:url(#a);}.b{fill:#fff;}</style><linearGradient id="a" y1="1080" x2="3358" y2="1080" gradientUnits="userSpaceOnUse"><stop offset="0" stop-color="#f411ee"/><stop offset="0.292" stop-color="#a741ea"/><stop offset="0.634" stop-color="#5377e6"/><stop offset="0.877" stop-color="#1e98e3"/><stop offset="0.994" stop-color="#0aa5e2"/></linearGradient></defs><path class="a" d="M3358,2160c-100.229-172.047-207.629-240.245-289.983-270-119.284-43.1-246.553-36.888-370.71-140-131.254-109.007-68.164-204.448-188.01-298-149.945-117.047-291.065-.714-471.62-114-150-94.114-91.4-198.748-249.619-311-169.672-120.379-271.35-24.373-451.438-140-129.593-83.207-129.507-166.673-206.646-258.589-33.245-39.613-63.648-61.853-103.518-90.411C874.9,429.447,766.8,438.9,671.17,386,592.4,342.423,499.983,244.3,453,0H0V2160Z"/><path d="M3329.991,311.876A41.491,41.491,0,1,0,3256.264,338h-.035L3288.5,382.9,3320.771,338h-.035A41.309,41.309,0,0,0,3329.991,311.876ZM3288.5,294.767a17.109,17.109,0,1,1-17.109,17.109A17.108,17.108,0,0,1,3288.5,294.767Z"/><path class="b" d="M576.991,1804.876A41.491,41.491,0,1,0,503.264,1831h-.035L535.5,1875.9,567.771,1831h-.035A41.309,41.309,0,0,0,576.991,1804.876ZM535.5,1787.767a17.109,17.109,0,1,1-17.109,17.109A17.108,17.108,0,0,1,535.5,1787.767Z"/></svg>