<svg xmlns="http://www.w3.org/2000/svg" xmlns:xlink="http://www.w3.org/1999/xlink" viewBox="0 0 1967.24 1421.63"><defs><style>.a{fill:url(#a);}</style><linearGradient id="a" x1="935.98" y1="1079.82" x2="2903.22" y2="1079.82" gradientUnits="userSpaceOnUse"><stop offset="0" stop-color="#cce0f4"/><stop offset="0" stop-color="#ced7f4"/><stop offset="0" stop-color="#d6aef3"/><stop offset="0" stop-color="#dd88f1"/><stop offset="0" stop-color="#e368f1"/><stop offset="0" stop-color="#e94cf0"/><stop offset="0" stop-color="#ed36ef"/><stop offset="0" stop-color="#f025ef"/><stop offset="0" stop-color="#f21aee"/><stop offset="0" stop-color="#f413ee"/><stop offset="0" stop-color="#f411ee"/><stop offset="0.11" stop-color="#e21ded"/><stop offset="0.33" stop-color="#b23beb"/><stop offset="0.65" stop-color="#666be7"/><stop offset="1" stop-color="#0aa5e2"/></linearGradient></defs><path class="a" d="M967.85,1103.06a895,895,0,0,0,63.35-272.39c11.11-153.22,56.37-213.9,102.3-238.17,83.2-44,159.8,37.76,277-13,117.87-51,103.78-155.76,218-200,77.56-30,98.57,12.61,272,26,220.51,17,272.07-45.33,384,10,94.7,46.81,72,98.48,167,139,133.74,57,217.55-28.82,313,36,63,42.76,92.47,124.93,97,184,6.75,88.06-42.71,115.63-26,200,15.16,76.53,60.18,75.66,67,141,7.56,72.35-45.8,91-87,213-39,115.58-3.83,136.44-41,182-63,77.22-161.95,14.68-282,98-80.34,55.76-56.12,97.72-126,133-95.49,48.21-153.37-23.74-320-5-124.19,14-118.19,56.88-208,54-136.58-4.38-149.66-103.58-310-139-144.16-31.84-189.12,36.09-275-18-71.42-45-52.77-99.79-153-197-77.56-75.23-115-67.86-144-116C932.76,1281.14,921.74,1216.46,967.85,1103.06Z" transform="translate(-935.98 -369.01)"/></svg>