<svg id="Layer_1" data-name="Layer 1" xmlns="http://www.w3.org/2000/svg" xmlns:xlink="http://www.w3.org/1999/xlink" viewBox="0 0 3096.013 2161.299"><defs><style>.cls-1{fill:url(#linear-gradient);}.cls-2{fill:#fff;}</style><linearGradient id="linear-gradient" x1="337.431" y1="1079.84" x2="3043.43" y2="1079.84" gradientTransform="matrix(1.144, 0, 0, 1, -411.625, -0.734)" gradientUnits="userSpaceOnUse"><stop offset="0" stop-color="#c9dff3"/><stop offset="0.001" stop-color="#ccd5f1"/><stop offset="0.001" stop-color="#d5b8ed"/><stop offset="0.003" stop-color="#e28be5"/><stop offset="0.004" stop-color="#f54cdb"/><stop offset="0.005" stop-color="#ff2ad6"/><stop offset="0.091" stop-color="#f42fd6"/><stop offset="0.243" stop-color="#d63dd7"/><stop offset="0.443" stop-color="#a653d8"/><stop offset="0.684" stop-color="#6372da"/><stop offset="0.956" stop-color="#0e98dd"/><stop offset="1" stop-color="#009fdd"/></linearGradient></defs><path class="cls-1" d="M3069.547,2160.568c-86.261-12.389-203.158-40.892-294.811-115.124-137.213-111.132-56.536-224.822-191.4-323.08-194.606-141.79-407.989-76.184-532.924-212.224-127.608-138.949,39.962-267.321-84.253-412.035-142.537-166.063-438.987-85.329-551.81-248.232-71.056-102.6,15.024-180.108.131-312C1399.113,401.75,1276.534,210.77,759.469-.4L-25.56-.732l-.907,2160Z" transform="translate(26.467 0.732)"/><path d="M2907.521,556.32A63.021,63.021,0,1,0,2795.537,596h-.053l49.016,68.19L2893.516,596h-.053A62.749,62.749,0,0,0,2907.521,556.32ZM2844.5,530.334a25.987,25.987,0,1,1-25.986,25.986A25.984,25.984,0,0,1,2844.5,530.334Z" transform="translate(26.467 0.732)"/><path class="cls-2" d="M940.185,1555.32A63.021,63.021,0,1,0,828.2,1595h-.053l49.016,68.19L926.181,1595h-.053A62.748,62.748,0,0,0,940.185,1555.32Zm-63.02-25.986a25.987,25.987,0,1,1-25.986,25.986A25.984,25.984,0,0,1,877.165,1529.334Z" transform="translate(26.467 0.732)"/></svg>